<?xml version="1.0" encoding="utf-8"?>
<!-- Generator: Adobe Illustrator 25.1.0, SVG Export Plug-In . SVG Version: 6.00 Build 0)  -->
<svg version="1.1" id="Layer_1" xmlns="http://www.w3.org/2000/svg" xmlns:xlink="http://www.w3.org/1999/xlink" x="0px" y="0px"
	 viewBox="0 0 500 167.2" style="enable-background:new 0 0 500 167.2;" xml:space="preserve">
<style type="text/css">
	.st0{fill:#001A13;}
</style>
<g>
	<path class="st0" d="M172.4,111.2V83.6c0-10-5.3-12.2-10.6-12.2s-10.6,2.1-10.6,11.9v27.8h-13.4V30.8h13.4v32.6
		c2.9-2.2,6.5-4.8,13.6-4.8c11.3,0,21.1,6.6,21.1,22.8v29.8H172.4z"/>
	<path class="st0" d="M233.5,111.2v-3.4c-4.1,3.4-9,4.8-14.3,4.8c-15.2,0-27.4-12.2-27.4-27c0-15,12.2-26.9,27.4-26.9
		c5.2,0,10.1,1.4,14.3,4.8v-3.8h13.4v51.6H233.5z M219.2,71.4c-7.8,0-14.2,6.5-14.2,14.1c0,7.7,6.4,14.2,14.2,14.2
		c7.9,0,14.3-6.5,14.3-14.2C233.5,78,227.1,71.4,219.2,71.4z"/>
	<path class="st0" d="M289.6,111.2V83.6c0-10-5.3-12.2-10.6-12.2c-5.3,0-10.6,2.1-10.6,11.9v27.8h-13.4V59.6h13.4v3.8
		c2.9-2.2,6.5-4.8,13.6-4.8c11.3,0,21.1,6.6,21.1,22.8v29.8H289.6z"/>
	<path class="st0" d="M340.5,111.3c0,0-3.9,1.3-10.3,1.3c-10.1,0-15.3-6.6-15.3-16.7V72.4h-8.1V59.6h8.1V42.1h13.4v17.5h13.7v12.8
		h-13.7v20.6c0,3.6,1,7,5.8,7c3.4,0,6.5-0.5,6.5-0.5V111.3z"/>
	<path class="st0" d="M417.2,111.2V83.6c0-10.5-4.7-12.2-9.4-12.2c-5.3,0-10.8,2.1-10.8,11.9v27.8h-13.4V83.6
		c0-10.5-4.7-12.2-9.4-12.2c-5.3,0-10.8,2.1-10.8,11.9v27.8H350V59.6h13.4v3.8c3.3-2.4,6.5-4.8,13.4-4.8c6.7,0,12.7,2.4,16.3,7.7
		c4.9-5.9,11.8-7.7,17.3-7.7c11.4,0,20.2,6.6,20.2,22.8v29.8H417.2z"/>
	<path class="st0" d="M104.2,58.6c-11.6,0-21.4,7-25.4,16.9h15.5c2.6-2.5,6.1-4.1,9.9-4.1c7.9,0,14.3,6.5,14.3,14.1
		c0,7.7-6.4,14.2-14.3,14.2c-6,0-11.2-3.9-13.3-9.2h10.7v-11h-1.2v0h-31v56.7h11V99.1c4.7,8.1,13.5,13.6,23.8,13.6
		c15.3,0,27.5-12.2,27.5-27.1C131.7,70.6,119.5,58.6,104.2,58.6z"/>
</g>
</svg>
